<svg width="16" height="16" viewBox="0 0 16 16" fill="none" xmlns="http://www.w3.org/2000/svg">
<path d="M8.80912 8L12.9107 3.11094C12.9794 3.02969 12.9216 2.90625 12.8154 2.90625H11.5685C11.4951 2.90625 11.4247 2.93906 11.3763 2.99531L7.99349 7.02813L4.61068 2.99531C4.56381 2.93906 4.49349 2.90625 4.41849 2.90625H3.17162C3.06537 2.90625 3.00756 3.02969 3.07631 3.11094L7.17787 8L3.07631 12.8891C3.06091 12.9072 3.05103 12.9293 3.04784 12.9529C3.04465 12.9764 3.04829 13.0004 3.05833 13.022C3.06836 13.0435 3.08437 13.0617 3.10445 13.0745C3.12453 13.0872 3.14785 13.0939 3.17162 13.0938H4.41849C4.49193 13.0938 4.56224 13.0609 4.61068 13.0047L7.99349 8.97188L11.3763 13.0047C11.4232 13.0609 11.4935 13.0938 11.5685 13.0938H12.8154C12.9216 13.0938 12.9794 12.9703 12.9107 12.8891L8.80912 8Z" fill="#8C8C8C"/>
</svg>
